<svg id="enrichment_category_graph_svg" height="296.39952pt" version="1.1" viewBox="0 0 659.39976 296.39952" width="659.39976pt" xmlns="http://www.w3.org/2000/svg" xmlns:xlink="http://www.w3.org/1999/xlink">
 <metadata>
  <rdf:rdf xmlns:cc="http://creativecommons.org/ns#" xmlns:dc="http://purl.org/dc/elements/1.1/" xmlns:rdf="http://www.w3.org/1999/02/22-rdf-syntax-ns#">
   <cc:work>
    <dc:type rdf:resource="http://purl.org/dc/dcmitype/StillImage"/>
    <dc:date>2025-01-23T03:06:39.116606</dc:date>
    <dc:format>image/svg+xml</dc:format>
    <dc:creator>
     <cc:agent>
      <dc:title>Matplotlib v3.4.2, https://matplotlib.org/</dc:title>
     </cc:agent>
    </dc:creator>
   </cc:work>
  </rdf:rdf>
 </metadata>
 <defs>
  <style type="text/css">*{stroke-linecap:butt;stroke-linejoin:round;}</style>
 </defs>
 <g id="figure_1">
  <g id="patch_1">
   <path d="M 0 296.39952 &#10;L 659.39976 296.39952 &#10;L 659.39976 0 &#10;L 0 0 &#10;z&#10;" style="fill:none;"/>
  </g>
  <g id="axes_1">
   <g id="patch_2">
    <path d="M 132.759687 265.022801 &#10;L 540.727553 265.022801 &#10;L 540.727553 21.207656 &#10;L 132.759687 21.207656 &#10;z&#10;" style="fill:none;"/>
   </g>
   <g id="matplotlib.axis_1">
    <g id="xtick_1">
     <g id="line2d_1">
      <path clip-path="url(#pd82007ad59)" d="M 154.334911 265.022801 &#10;L 154.334911 21.207656 &#10;" style="fill:none;stroke:#d3d3d3;stroke-dasharray:2.22,0.96;stroke-dashoffset:0;stroke-width:0.6;"/>
     </g>
     <g id="line2d_2"/>
     <g id="text_1">
      <text style="font-family:Arial;font-size:9px;font-stretch:normal;font-style:normal;font-weight:normal;text-anchor:middle;" transform="rotate(-0, 154.334911, 274.964832)" x="154.334911" y="274.964832">1.340</text>
     </g>
    </g>
    <g id="xtick_2">
     <g id="line2d_3">
      <path clip-path="url(#pd82007ad59)" d="M 227.298395 265.022801 &#10;L 227.298395 21.207656 &#10;" style="fill:none;stroke:#d3d3d3;stroke-dasharray:2.22,0.96;stroke-dashoffset:0;stroke-width:0.6;"/>
     </g>
     <g id="line2d_4"/>
     <g id="text_2">
      <text style="font-family:Arial;font-size:9px;font-stretch:normal;font-style:normal;font-weight:normal;text-anchor:middle;" transform="rotate(-0, 227.298395, 274.964832)" x="227.298395" y="274.964832">1.342</text>
     </g>
    </g>
    <g id="xtick_3">
     <g id="line2d_5">
      <path clip-path="url(#pd82007ad59)" d="M 300.261879 265.022801 &#10;L 300.261879 21.207656 &#10;" style="fill:none;stroke:#d3d3d3;stroke-dasharray:2.22,0.96;stroke-dashoffset:0;stroke-width:0.6;"/>
     </g>
     <g id="line2d_6"/>
     <g id="text_3">
      <text style="font-family:Arial;font-size:9px;font-stretch:normal;font-style:normal;font-weight:normal;text-anchor:middle;" transform="rotate(-0, 300.261879, 274.964832)" x="300.261879" y="274.964832">1.344</text>
     </g>
    </g>
    <g id="xtick_4">
     <g id="line2d_7">
      <path clip-path="url(#pd82007ad59)" d="M 373.225362 265.022801 &#10;L 373.225362 21.207656 &#10;" style="fill:none;stroke:#d3d3d3;stroke-dasharray:2.22,0.96;stroke-dashoffset:0;stroke-width:0.6;"/>
     </g>
     <g id="line2d_8"/>
     <g id="text_4">
      <text style="font-family:Arial;font-size:9px;font-stretch:normal;font-style:normal;font-weight:normal;text-anchor:middle;" transform="rotate(-0, 373.225362, 274.964832)" x="373.225362" y="274.964832">1.346</text>
     </g>
    </g>
    <g id="xtick_5">
     <g id="line2d_9">
      <path clip-path="url(#pd82007ad59)" d="M 446.188846 265.022801 &#10;L 446.188846 21.207656 &#10;" style="fill:none;stroke:#d3d3d3;stroke-dasharray:2.22,0.96;stroke-dashoffset:0;stroke-width:0.6;"/>
     </g>
     <g id="line2d_10"/>
     <g id="text_5">
      <text style="font-family:Arial;font-size:9px;font-stretch:normal;font-style:normal;font-weight:normal;text-anchor:middle;" transform="rotate(-0, 446.188846, 274.964832)" x="446.188846" y="274.964832">1.348</text>
     </g>
    </g>
    <g id="xtick_6">
     <g id="line2d_11">
      <path clip-path="url(#pd82007ad59)" d="M 519.15233 265.022801 &#10;L 519.15233 21.207656 &#10;" style="fill:none;stroke:#d3d3d3;stroke-dasharray:2.22,0.96;stroke-dashoffset:0;stroke-width:0.6;"/>
     </g>
     <g id="line2d_12"/>
     <g id="text_6">
      <text style="font-family:Arial;font-size:9px;font-stretch:normal;font-style:normal;font-weight:normal;text-anchor:middle;" transform="rotate(-0, 519.15233, 274.964832)" x="519.15233" y="274.964832">1.350</text>
     </g>
    </g>
    <g id="text_7">
     <text style="font-family:Arial;font-size:9px;font-stretch:normal;font-style:normal;font-weight:normal;text-anchor:middle;" transform="rotate(-0, 336.74362, 287.305301)" x="336.74362" y="287.305301">Signal</text>
    </g>
   </g>
   <g id="matplotlib.axis_2">
    <g id="ytick_1">
     <g id="line2d_13"/>
     <g id="text_8">
      <text style="font-family:Arial;font-size:9px;font-stretch:normal;font-style:normal;font-weight:normal;text-anchor:end;" transform="rotate(-0, 129.259687, 105.700387)" x="129.259687" y="105.700387">NF-kappa B signaling pathway</text>
     </g>
    </g>
    <g id="ytick_2">
     <g id="line2d_14"/>
     <g id="text_9">
      <text style="font-family:Arial;font-size:9px;font-stretch:normal;font-style:normal;font-weight:normal;text-anchor:end;" transform="rotate(-0, 129.259687, 186.972102)" x="129.259687" y="186.972102">TNF signaling pathway</text>
     </g>
    </g>
   </g>
   <g id="patch_3">
    <path clip-path="url(#pd82007ad59)" d="M 132.759688 63.468948 &#10;L 540.727554 63.468948 &#10;L 540.727554 217.885207 &#10;L 132.759688 217.885207 &#10;z&#10;" style="fill:#d6efb3;opacity:0.1;"/>
   </g>
   <g id="line2d_15">
    <path clip-path="url(#pd82007ad59)" d="M 132.759688 102.479371 &#10;L 519.15233 102.479371 &#10;" style="fill:none;stroke:#d6efb3;stroke-linecap:square;stroke-width:3;"/>
   </g>
   <g id="line2d_16">
    <path clip-path="url(#pd82007ad59)" d="M 132.759688 183.751086 &#10;L 154.334911 183.751086 &#10;" style="fill:none;stroke:#d6efb3;stroke-linecap:square;stroke-width:3;"/>
   </g>
   <g id="PathCollection_1">
    <path clip-path="url(#pd82007ad59)" d="M 519.15233 114.72682 &#10;C 522.400391 114.72682 525.515858 113.436352 527.812584 111.139625 &#10;C 530.10931 108.842899 531.399779 105.727433 531.399779 102.479371 &#10;C 531.399779 99.23131 530.10931 96.115843 527.812584 93.819117 &#10;C 525.515858 91.522391 522.400391 90.231923 519.15233 90.231923 &#10;C 515.904268 90.231923 512.788802 91.522391 510.492076 93.819117 &#10;C 508.19535 96.115843 506.904881 99.23131 506.904881 102.479371 &#10;C 506.904881 105.727433 508.19535 108.842899 510.492076 111.139625 &#10;C 512.788802 113.436352 515.904268 114.72682 519.15233 114.72682 &#10;z&#10;" style="fill:#d6efb3;stroke:#b5c2a4;stroke-width:2.2;"/>
    <path clip-path="url(#pd82007ad59)" d="M 154.334911 195.998535 &#10;C 157.582973 195.998535 160.698439 194.708067 162.995165 192.41134 &#10;C 165.291891 190.114614 166.58236 186.999148 166.58236 183.751086 &#10;C 166.58236 180.503025 165.291891 177.387558 162.995165 175.090832 &#10;C 160.698439 172.794106 157.582973 171.503638 154.334911 171.503638 &#10;C 151.08685 171.503638 147.971383 172.794106 145.674657 175.090832 &#10;C 143.377931 177.387558 142.087462 180.503025 142.087462 183.751086 &#10;C 142.087462 186.999148 143.377931 190.114614 145.674657 192.41134 &#10;C 147.971383 194.708067 151.08685 195.998535 154.334911 195.998535 &#10;z&#10;" style="fill:#d6efb3;stroke:#b5c2a4;stroke-width:2.2;"/>
   </g>
   <g id="text_10">
    <text style="font-family:Arial;font-size:11px;font-stretch:normal;font-style:normal;font-weight:normal;text-anchor:middle;" transform="rotate(-0, 336.74362, 15.207656)" x="336.74362" y="15.207656">KEGG Pathways enrichment</text>
   </g>
   <g id="line2d_17">
    <path clip-path="url(#pd82007ad59)" d="M 519.15233 91.50769 &#10;L 519.15233 113.451053 &#10;" style="fill:none;stroke:#808080;stroke-dasharray:1.85,0.8;stroke-dashoffset:0;stroke-width:0.5;"/>
   </g>
   <g id="line2d_18">
    <path clip-path="url(#pd82007ad59)" d="M 154.334911 172.779405 &#10;L 154.334911 194.722768 &#10;" style="fill:none;stroke:#808080;stroke-dasharray:1.85,0.8;stroke-dashoffset:0;stroke-width:0.5;"/>
   </g>
  </g>
  <g id="axes_2">
   <g id="patch_4">
    <path d="M 547.207553 265.022801 &#10;L 649.19952 265.022801 &#10;L 649.19952 21.207656 &#10;L 547.207553 21.207656 &#10;z&#10;" style="fill:none;"/>
   </g>
   <g id="patch_5">
    <path clip-path="url(#p886ca81b16)" d="M 547.207553 218.291565 &#10;L 559.956549 218.291565 &#10;L 559.956549 63.062589 &#10;L 547.207553 63.062589 &#10;z&#10;" style="fill:#d6efb3;"/>
   </g>
   <g id="matplotlib.axis_3"/>
   <g id="matplotlib.axis_4"/>
   <g id="text_11">
    <text style="font-family:Arial;font-size:9px;font-stretch:normal;font-style:normal;font-weight:normal;" transform="translate(575.034295 184.724787)rotate(-90)">Groups at similarity 0.8</text>
   </g>
  </g>
  <g id="axes_3">
   <g id="patch_6">
    <path d="M 587.39976 122.99976 &#10;L 652.19976 122.99976 &#10;L 652.19976 14.99976 &#10;L 587.39976 14.99976 &#10;z&#10;" style="fill:none;"/>
   </g>
   <g id="PathCollection_2">
    <defs>
     <path d="M -70.710678 70.710678 &#10;L 70.710678 70.710678 &#10;L 70.710678 -70.710678 &#10;L -70.710678 -70.710678 &#10;z&#10;" id="me68f05b981" style="stroke:#ffffff;stroke-opacity:0.6;"/>
    </defs>
    <g clip-path="url(#p52f24f5754)">
     <use style="fill:#ffffff;fill-opacity:0.6;stroke:#ffffff;stroke-opacity:0.6;" x="619.79976" xlink:href="#me68f05b981" y="68.99976"/>
    </g>
   </g>
   <g id="matplotlib.axis_5">
    <g id="xtick_7"/>
    <g id="xtick_8"/>
    <g id="xtick_9"/>
   </g>
   <g id="matplotlib.axis_6">
    <g id="ytick_3"/>
    <g id="ytick_4"/>
    <g id="ytick_5"/>
    <g id="ytick_6"/>
    <g id="ytick_7"/>
   </g>
  </g>
  <g id="axes_4">
   <g id="patch_7">
    <path d="M 587.39976 181.24776 &#10;L 648.95976 181.24776 &#10;L 648.95976 128.37096 &#10;L 587.39976 128.37096 &#10;z&#10;" style="fill:none;"/>
   </g>
   <g id="PathCollection_3">
    <g clip-path="url(#pe529b016ab)">
     <use style="fill:#ffffff;fill-opacity:0.6;stroke:#ffffff;stroke-opacity:0.6;" x="618.17976" xlink:href="#me68f05b981" y="154.80936"/>
    </g>
   </g>
   <g id="matplotlib.axis_7">
    <g id="xtick_10"/>
    <g id="xtick_11"/>
    <g id="xtick_12"/>
   </g>
   <g id="matplotlib.axis_8">
    <g id="ytick_8"/>
    <g id="ytick_9"/>
    <g id="ytick_10"/>
   </g>
  </g>
 </g>
 <defs>
  <clipPath id="pd82007ad59">
   <rect height="243.815145" width="407.967866" x="132.759687" y="21.207656"/>
  </clipPath>
  <clipPath id="p886ca81b16">
   <rect height="243.815145" width="101.991967" x="547.207553" y="21.207656"/>
  </clipPath>
  <clipPath id="p52f24f5754">
   <rect height="108" width="64.8" x="587.39976" y="14.99976"/>
  </clipPath>
  <clipPath id="pe529b016ab">
   <rect height="52.8768" width="61.56" x="587.39976" y="128.37096"/>
  </clipPath>
 </defs>
</svg>