<svg id="enrichment_category_graph_svg" height="296.39952pt" version="1.1" viewBox="0 0 659.39976 296.39952" width="659.39976pt" xmlns="http://www.w3.org/2000/svg" xmlns:xlink="http://www.w3.org/1999/xlink">
 <metadata>
  <rdf:rdf xmlns:cc="http://creativecommons.org/ns#" xmlns:dc="http://purl.org/dc/elements/1.1/" xmlns:rdf="http://www.w3.org/1999/02/22-rdf-syntax-ns#">
   <cc:work>
    <dc:type rdf:resource="http://purl.org/dc/dcmitype/StillImage"/>
    <dc:date>2025-01-23T03:04:10.653714</dc:date>
    <dc:format>image/svg+xml</dc:format>
    <dc:creator>
     <cc:agent>
      <dc:title>Matplotlib v3.4.2, https://matplotlib.org/</dc:title>
     </cc:agent>
    </dc:creator>
   </cc:work>
  </rdf:rdf>
 </metadata>
 <defs>
  <style type="text/css">*{stroke-linecap:butt;stroke-linejoin:round;}</style>
 </defs>
 <g id="figure_1">
  <g id="patch_1">
   <path d="M 0 296.39952 &#10;L 659.39976 296.39952 &#10;L 659.39976 0 &#10;L 0 0 &#10;z&#10;" style="fill:none;"/>
  </g>
  <g id="axes_1">
   <g id="patch_2">
    <path d="M 149.768281 265.022801 &#10;L 544.129272 265.022801 &#10;L 544.129272 21.214531 &#10;L 149.768281 21.214531 &#10;z&#10;" style="fill:none;"/>
   </g>
   <g id="matplotlib.axis_1">
    <g id="xtick_1">
     <g id="line2d_1">
      <path clip-path="url(#p70dceca959)" d="M 169.486331 265.022801 &#10;L 169.486331 21.214531 &#10;" style="fill:none;stroke:#d3d3d3;stroke-dasharray:2.22,0.96;stroke-dashoffset:0;stroke-width:0.6;"/>
     </g>
     <g id="line2d_2"/>
     <g id="text_1">
      <text style="font-family:Arial;font-size:9px;font-stretch:normal;font-style:normal;font-weight:normal;text-anchor:middle;" transform="rotate(-0, 169.486331, 274.964832)" x="169.486331" y="274.964832">1.6</text>
     </g>
    </g>
    <g id="xtick_2">
     <g id="line2d_3">
      <path clip-path="url(#p70dceca959)" d="M 248.358529 265.022801 &#10;L 248.358529 21.214531 &#10;" style="fill:none;stroke:#d3d3d3;stroke-dasharray:2.22,0.96;stroke-dashoffset:0;stroke-width:0.6;"/>
     </g>
     <g id="line2d_4"/>
     <g id="text_2">
      <text style="font-family:Arial;font-size:9px;font-stretch:normal;font-style:normal;font-weight:normal;text-anchor:middle;" transform="rotate(-0, 248.358529, 274.964832)" x="248.358529" y="274.964832">1.8</text>
     </g>
    </g>
    <g id="xtick_3">
     <g id="line2d_5">
      <path clip-path="url(#p70dceca959)" d="M 327.230727 265.022801 &#10;L 327.230727 21.214531 &#10;" style="fill:none;stroke:#d3d3d3;stroke-dasharray:2.22,0.96;stroke-dashoffset:0;stroke-width:0.6;"/>
     </g>
     <g id="line2d_6"/>
     <g id="text_3">
      <text style="font-family:Arial;font-size:9px;font-stretch:normal;font-style:normal;font-weight:normal;text-anchor:middle;" transform="rotate(-0, 327.230727, 274.964832)" x="327.230727" y="274.964832">2.0</text>
     </g>
    </g>
    <g id="xtick_4">
     <g id="line2d_7">
      <path clip-path="url(#p70dceca959)" d="M 406.102925 265.022801 &#10;L 406.102925 21.214531 &#10;" style="fill:none;stroke:#d3d3d3;stroke-dasharray:2.22,0.96;stroke-dashoffset:0;stroke-width:0.6;"/>
     </g>
     <g id="line2d_8"/>
     <g id="text_4">
      <text style="font-family:Arial;font-size:9px;font-stretch:normal;font-style:normal;font-weight:normal;text-anchor:middle;" transform="rotate(-0, 406.102925, 274.964832)" x="406.102925" y="274.964832">2.2</text>
     </g>
    </g>
    <g id="xtick_5">
     <g id="line2d_9">
      <path clip-path="url(#p70dceca959)" d="M 484.975124 265.022801 &#10;L 484.975124 21.214531 &#10;" style="fill:none;stroke:#d3d3d3;stroke-dasharray:2.22,0.96;stroke-dashoffset:0;stroke-width:0.6;"/>
     </g>
     <g id="line2d_10"/>
     <g id="text_5">
      <text style="font-family:Arial;font-size:9px;font-stretch:normal;font-style:normal;font-weight:normal;text-anchor:middle;" transform="rotate(-0, 484.975124, 274.964832)" x="484.975124" y="274.964832">2.4</text>
     </g>
    </g>
    <g id="text_6">
     <text style="font-family:Arial;font-size:9px;font-stretch:normal;font-style:normal;font-weight:normal;text-anchor:middle;" transform="rotate(-0, 346.948777, 287.305301)" x="346.948777" y="287.305301">Signal</text>
    </g>
   </g>
   <g id="matplotlib.axis_2">
    <g id="ytick_1">
     <g id="line2d_11"/>
     <g id="text_7">
      <text style="font-family:Arial;font-size:9px;font-stretch:normal;font-style:normal;font-weight:normal;" transform="translate(7.2 142.226401)">Negative regulation of complement</text>
      <text style="font-family:Arial;font-size:9px;font-stretch:normal;font-style:normal;font-weight:normal;" transform="translate(46.219219 151.851057)">activation, lectin pathway</text>
     </g>
    </g>
   </g>
   <g id="patch_3">
    <path clip-path="url(#p70dceca959)" d="M 149.768281 84.604681 &#10;L 544.129272 84.604681 &#10;L 544.129272 194.318403 &#10;L 149.768281 194.318403 &#10;z&#10;" style="fill:#d6efb3;opacity:0.1;"/>
   </g>
   <g id="line2d_12">
    <path clip-path="url(#p70dceca959)" d="M 149.768281 143.118666 &#10;L 346.948777 143.118666 &#10;" style="fill:none;stroke:#d6efb3;stroke-linecap:square;stroke-width:3;"/>
   </g>
   <g id="PathCollection_1">
    <defs>
     <path d="M 0 12.247449 &#10;C 3.248061 12.247449 6.363528 10.95698 8.660254 8.660254 &#10;C 10.95698 6.363528 12.247449 3.248061 12.247449 0 &#10;C 12.247449 -3.248061 10.95698 -6.363528 8.660254 -8.660254 &#10;C 6.363528 -10.95698 3.248061 -12.247449 0 -12.247449 &#10;C -3.248061 -12.247449 -6.363528 -10.95698 -8.660254 -8.660254 &#10;C -10.95698 -6.363528 -12.247449 -3.248061 -12.247449 0 &#10;C -12.247449 3.248061 -10.95698 6.363528 -8.660254 8.660254 &#10;C -6.363528 10.95698 -3.248061 12.247449 0 12.247449 &#10;z&#10;" id="mdfd7d77b99" style="stroke:#b5c2a4;stroke-width:2.2;"/>
    </defs>
    <g clip-path="url(#p70dceca959)">
     <use style="fill:#d6efb3;stroke:#b5c2a4;stroke-width:2.2;" x="346.948777" xlink:href="#mdfd7d77b99" y="143.118666"/>
    </g>
   </g>
   <g id="text_8">
    <text style="font-family:Arial;font-size:11px;font-stretch:normal;font-style:normal;font-weight:normal;text-anchor:middle;" transform="rotate(-0, 346.948777, 15.214531)" x="346.948777" y="15.214531">Biological Process (Gene Ontology) enrichment</text>
   </g>
   <g id="line2d_13">
    <path clip-path="url(#p70dceca959)" d="M 346.948777 132.147294 &#10;L 346.948777 154.090038 &#10;" style="fill:none;stroke:#808080;stroke-dasharray:1.85,0.8;stroke-dashoffset:0;stroke-width:0.5;"/>
   </g>
  </g>
  <g id="axes_2">
   <g id="patch_4">
    <path d="M 550.609272 265.022801 &#10;L 649.19952 265.022801 &#10;L 649.19952 21.214531 &#10;L 550.609272 21.214531 &#10;z&#10;" style="fill:none;"/>
   </g>
   <g id="patch_5">
    <path clip-path="url(#pc63f41b47c)" d="M 550.609272 194.927924 &#10;L 562.933053 194.927924 &#10;L 562.933053 83.995161 &#10;L 550.609272 83.995161 &#10;z&#10;" style="fill:#d6efb3;"/>
   </g>
   <g id="matplotlib.axis_3"/>
   <g id="matplotlib.axis_4"/>
   <g id="text_9">
    <text style="font-family:Arial;font-size:9px;font-stretch:normal;font-style:normal;font-weight:normal;" transform="translate(577.585584 184.726936)rotate(-90)">Groups at similarity 0.8</text>
   </g>
  </g>
  <g id="axes_3">
   <g id="patch_6">
    <path d="M 587.39976 122.99976 &#10;L 652.19976 122.99976 &#10;L 652.19976 14.99976 &#10;L 587.39976 14.99976 &#10;z&#10;" style="fill:none;"/>
   </g>
   <g id="PathCollection_2">
    <defs>
     <path d="M -70.710678 70.710678 &#10;L 70.710678 70.710678 &#10;L 70.710678 -70.710678 &#10;L -70.710678 -70.710678 &#10;z&#10;" id="mfb40c5b106" style="stroke:#ffffff;stroke-opacity:0.6;"/>
    </defs>
    <g clip-path="url(#p418b2cd48c)">
     <use style="fill:#ffffff;fill-opacity:0.6;stroke:#ffffff;stroke-opacity:0.6;" x="619.79976" xlink:href="#mfb40c5b106" y="68.99976"/>
    </g>
   </g>
   <g id="matplotlib.axis_5">
    <g id="xtick_6"/>
    <g id="xtick_7"/>
    <g id="xtick_8"/>
   </g>
   <g id="matplotlib.axis_6">
    <g id="ytick_2"/>
    <g id="ytick_3"/>
    <g id="ytick_4"/>
    <g id="ytick_5"/>
    <g id="ytick_6"/>
   </g>
  </g>
  <g id="axes_4">
   <g id="patch_7">
    <path d="M 587.39976 181.24776 &#10;L 648.95976 181.24776 &#10;L 648.95976 128.37096 &#10;L 587.39976 128.37096 &#10;z&#10;" style="fill:none;"/>
   </g>
   <g id="PathCollection_3">
    <g clip-path="url(#pad1ca08a73)">
     <use style="fill:#ffffff;fill-opacity:0.6;stroke:#ffffff;stroke-opacity:0.6;" x="618.17976" xlink:href="#mfb40c5b106" y="154.80936"/>
    </g>
   </g>
   <g id="matplotlib.axis_7">
    <g id="xtick_9"/>
    <g id="xtick_10"/>
    <g id="xtick_11"/>
   </g>
   <g id="matplotlib.axis_8">
    <g id="ytick_7"/>
    <g id="ytick_8"/>
    <g id="ytick_9"/>
   </g>
  </g>
 </g>
 <defs>
  <clipPath id="p70dceca959">
   <rect height="243.80827" width="394.360991" x="149.768281" y="21.214531"/>
  </clipPath>
  <clipPath id="pc63f41b47c">
   <rect height="243.80827" width="98.590248" x="550.609272" y="21.214531"/>
  </clipPath>
  <clipPath id="p418b2cd48c">
   <rect height="108" width="64.8" x="587.39976" y="14.99976"/>
  </clipPath>
  <clipPath id="pad1ca08a73">
   <rect height="52.8768" width="61.56" x="587.39976" y="128.37096"/>
  </clipPath>
 </defs>
</svg>